# xmcd
# 
# Track frame offsets:
#     150
#     13565
#     27587
#     42255
#     56415
#     70070
#     84065
#     97582
#     112092
#     126445
#     140210
#     154105
#     167342
#     180215
#     194325
#     207555
#     222000
#     236932
# 
# Disc length: 3332
# 
# Revision: 4
# Processed by: cddbd v1.5.2PL0 Copyright (c) Steve Scherf et al.
# Submitted via: fre:ac v1.0.31
# 
DISCID=f30d0212
DTITLE=Columbia Blues - Leadbrlly King Of The 12-String Guitar
DYEAR=1991
DGENRE=Blues
TTITLE0=Packin' Trunk
TTITLE1=Becky Deem, She Was a Gamblin' Girl
TTITLE2=Honey, I'm All Out and Down
TTITLE3=Four Day Worry Blues
TTITLE4=Roberta Part I
TTITLE5=Roberta Part II
TTITLE6=Death Letter Blues Part I
TTITLE7=Death Letter Blues Part II
TTITLE8=Kansas City Papa
TTITLE9=Fort Worth and Dallas Blues
TTITLE10=You Don't Know My Mind
TTITLE11=Ox Drivin' Blues
TTITLE12=Daddy I'm Coming Back To You
TTITLE13=Shorty George
TTITLE14=Yellow Jacket
TTITLE15=T. B. Woman Blues
TTITLE16=Pig Meat Papa
TTITLE17=My Baby Quit Me
EXTD=LABEL =Sony Music Entertainment Inc.\nID =CK46776\nUPC =07464-46776-2\nCOPYRIGHT =1991\n*****\nDISC: 1\nUPC: 074644677621\nLABEL: Columbia - Legacy\nENSORECORD: 113548
EXTT0=PERFORMER: Leadbelly
EXTT1=PERFORMER: Leadbelly
EXTT2=PERFORMER: Leadbelly
EXTT3=PERFORMER: Leadbelly
EXTT4=PERFORMER: Leadbelly
EXTT5=PERFORMER: Leadbelly
EXTT6=PERFORMER: Leadbelly
EXTT7=PERFORMER: Leadbelly
EXTT8=PERFORMER: Leadbelly
EXTT9=PERFORMER: Leadbelly
EXTT10=PERFORMER: Leadbelly
EXTT11=PERFORMER: Leadbelly
EXTT12=PERFORMER: Leadbelly
EXTT13=PERFORMER: Leadbelly
EXTT14=PERFORMER: Leadbelly
EXTT15=PERFORMER: Leadbelly
EXTT16=PERFORMER: Leadbelly
EXTT17=PERFORMER: Leadbelly
PLAYORDER=
